Genre:Biography | Drama | History 
Language:English
IMDb:http://www.imdb.com/title/tt1504320/
Source:1080p.BluRay.X264-AMIABLE
Subtitles:Romana


Format : MPEG-4
Format profile : Base Media
Codec ID : isom
File size : 2.79 GiB
Duration : 1h 58mn
Overall bit rate : 3 367 Kbps


Video
Format profile : High@L4.1
Format settings, CABAC : Yes
Format settings, ReFrames : 3 frames
Codec ID : avc1
Codec ID/Info : Advanced Video Coding
Duration : 1h 58mn
Bit rate mode : Variable
Bit rate : 3 000 Kbps
Maximum bit rate : 25.4 Mbps
Width : 1 280 pixels
Height : 720 pixels
Display aspect ratio : 16:9
Frame rate mode : Constant
Frame rate : 23.976 fps
Color space : YUV
Chroma subsampling : 4:2:0
Bit depth : 8 bits
Scan type : Progressive
Bits/(Pixel*Frame) : 0.136
Stream size : 2.42 GiB (87%)
Writing library : x264


Audio
ID : 2
Format : AAC
Format/Info : Advanced Audio Codec
Format version : Version 4
Format profile : LC
Format settings, SBR : No
Codec ID : 40
Duration : 1h 58mn
Bit rate mode : Variable
Bit rate : 434 Kbps
Maximum bit rate : 550 Kbps
Channel(s) : 6 channels
Channel positions : Front: L C R, Side: L R, LFE
Sampling rate : 48.0 KHz
Stream size : 368 MiB (13%)


Plot:
The story of King George VI of Britain, his impromptu ascension to the throne and the speech therapist who helped the unsure monarch become worthy of it. 
 
http://www.pix2links.com/images/94908935640122778609.png 
http://www.pix2links.com/images/51552368000966651328.png 
http://www.pix2links.com/images/17421497804997291245.png 
http://www.pix2links.com/images/95766306457381228807.png 
http://www.pix2links.com/images/40215391002329797258.png

Greets:

INK,CRYS,IMAGINE,LKRG,FXG,3Li,FLAWL3SS,TA,iLLUSiON,ViSiON,DTRG SAFCuk009,LU,TheFalcon007,MYSTiC,PrisM,Noir,WBZ,LAP,Rx,Kingdom,SAFCuk009+Fabreezy,HDLiTE,TWiZTED,ExtraTorrentRG.ELEKTRI4KA,MAGNAT,CM8
And to all the other p2p grps past and present 